{"title":"The.Amazing.Race.Asia.S04E12-LCP.avi","uid":6025509,"size":367649404,"categoryP":"video","categoryS":"tv_shows","magnet":"?xt=urn:btih:8d41903ff0a496ce14ce8635fb9ab553ec1c1489&amp;dn=The.Amazing.Race.Asia.S04E12-LCP.avi&amp;tr=udp%3A%2F%2Ftracker.openbittorrent.com%3A80&amp;tr=udp%3A%2F%2Fopen.demonii.com%3A1337&amp;tr=udp%3A%2F%2Ftracker.coppersurfer.tk%3A6969&amp;tr=udp%3A%2F%2Fexodus.desync.com%3A6969","seeders":1,"leechers":0,"uploader":"LCP-1","files":1,"time":1291914585,"description":"Season finale. Enjoy!\n\nVideo\nID                               : 0\nFormat                           : MPEG-4 Visual\nFormat profile                   : Advanced Simple@L5\nFormat settings, BVOP            : Yes\nFormat settings, QPel            : No\nFormat settings, GMC             : No warppoints\nFormat settings, Matrix          : Default (H.263)\nCodec ID                         : XVID\nCodec ID/Hint                    : XviD\nDuration                         : 43mn 10s\nBit rate                         : 1 026 Kbps\nWidth                            : 624 pixels\nHeight                           : 352 pixels\nDisplay aspect ratio             : 16:9\nFrame rate                       : 25.000 fps\nColor space                      : YUV\nChroma subsampling               : 4:2:0\nBit depth                        : 8 bits\nScan type                        : Progressive\nCompression mode                 : Lossy\nBits/(Pixel*Frame)               : 0.187\nStream size                      : 317 MiB (90%)\nWriting library                  : XviD 1.2.1 (UTC 2008-12-04)\n\nAudio\nID                               : 1\nFormat                           : MPEG Audio\nFormat version                   : Version 1\nFormat profile                   : Layer 3\nMode                             : Joint stereo\nMode extension                   : MS Stereo\nCodec ID                         : 55\nCodec ID/Hint                    : MP3\nDuration                         : 43mn 10s\nBit rate mode                    : Constant\nBit rate                         : 96.0 Kbps\nChannel(s)                       : 2 channels\nSampling rate                    : 48.0 KHz\nBit depth                        : 16 bits\nCompression mode                 : Lossy\nStream size                      : 29.6 MiB (8%)\nAlignment                        : Split across interleaves\nInterleave, duration             : 24 ms (0.60 video frame)\n","torrent":{"xt":"urn:btih:8d41903ff0a496ce14ce8635fb9ab553ec1c1489","amp;dn":"The.Amazing.Race.Asia.S04E12-LCP.avi","amp;tr":["udp%3A%2F%2Ftracker.openbittorrent.com%3A80","udp%3A%2F%2Fopen.demonii.com%3A1337","udp%3A%2F%2Ftracker.coppersurfer.tk%3A6969","udp%3A%2F%2Fexodus.desync.com%3A6969"],"infoHash":"8d41903ff0a496ce14ce8635fb9ab553ec1c1489","infoHashBuffer":{"type":"Buffer","data":[141,65,144,63,240,164,150,206,20,206,134,53,251,154,181,83,236,28,20,137]},"announce":[],"urlList":[]}}